# xmcd
#
# Track frame offsets: 
#        150
#        14553
#        30869
#        49561
#        64236
#        81801
#        99461
#        114226
#        130369
#        149306
#        162285
#        175295
#
# Disc length: 2596 seconds
#
# Revision: 2
# Processed by: cddbd v1.5.2PL0 Copyright (c) Steve Scherf et al.
# Submitted via: ExactAudioCopy v1.1
#
DISCID=970a220c
DTITLE=Simply Red - Big Love
DYEAR=2015
DGENRE=Pop
TTITLE0=Shine On
TTITLE1=Daydreaming
TTITLE2=Big Love
TTITLE3=The Ghost Of Love
TTITLE4=Dad
TTITLE5=Love Wonders
TTITLE6=Love Gave Me More
TTITLE7=Tight Tones
TTITLE8=WORU
TTITLE9=Coming Home
TTITLE10=The Old Man And The Beer
TTITLE11=Each Day
EXTD=
EXTT0=
EXTT1=
EXTT2=
EXTT3=
EXTT4=
EXTT5=
EXTT6=
EXTT7=
EXTT8=
EXTT9=
EXTT10=
EXTT11=
PLAYORDER=
